<svg width="203" height="70" viewBox="0 0 203 70" fill="none" xmlns="http://www.w3.org/2000/svg">
<path d="M34.7776 8.22363C20.1339 8.22363 8.22388 20.1383 8.22388 34.7773C8.22388 49.4164 20.1385 61.331 34.7776 61.331C49.4166 61.331 61.3313 49.421 61.3313 34.7773C61.3313 20.1337 49.4212 8.22363 34.7776 8.22363ZM34.7776 59.5546C21.1142 59.5546 10.0003 48.4407 10.0003 34.7773C10.0003 21.1139 21.1142 10 34.7776 10C48.441 10 59.5549 21.1139 59.5549 34.7773C59.5549 48.4407 48.441 59.5546 34.7776 59.5546Z" fill="#97D700"/>
<path d="M85.3401 0H83.0391V19.1767H94.222V17.1932H85.3401V0Z" fill="#97D700"/>
<path d="M99.3394 0C98.939 0 98.5939 0.161077 98.3039 0.487821C98.0186 0.814565 97.8713 1.19653 97.8713 1.63833C97.8713 2.09853 98.014 2.4851 98.3039 2.80264C98.5893 3.12018 98.9344 3.27665 99.3394 3.27665C99.7444 3.27665 100.085 3.12018 100.375 2.80264C100.66 2.4851 100.807 2.09853 100.807 1.63833C100.807 1.19653 100.665 0.814565 100.375 0.487821C100.085 0.161077 99.7398 0 99.3394 0Z" fill="#97D700"/>
<path d="M100.458 5.46289H98.2166V19.1769H100.458V5.46289Z" fill="#97D700"/>
<path d="M124.766 6.62714C124.393 6.13933 123.882 5.76656 123.242 5.50424C122.598 5.24653 121.797 5.11768 120.84 5.11768C119.864 5.11768 118.962 5.29255 118.139 5.6331C117.315 5.97825 116.615 6.39244 116.04 6.87105C115.58 6.19915 115.009 5.73895 114.328 5.49044C113.647 5.24193 112.943 5.11768 112.216 5.11768C111.355 5.11768 110.559 5.27414 109.832 5.59168C109.105 5.90922 108.511 6.22676 108.051 6.55351L107.908 5.46283H105.87V19.1769H108.083V8.48176C108.58 8.1366 109.16 7.79605 109.823 7.46011C110.485 7.12416 111.148 6.95849 111.82 6.95849C112.395 6.95849 112.865 7.05513 113.228 7.24381C113.592 7.43709 113.886 7.69941 114.103 8.03536C114.324 8.37131 114.475 8.75788 114.563 9.19967C114.65 9.64147 114.692 10.1109 114.692 10.6079V19.1769H116.905V10.8978C116.905 10.3226 116.882 9.85776 116.832 9.50341C116.786 9.14905 116.712 8.8085 116.615 8.48176C116.809 8.32989 117.043 8.16422 117.319 7.99394C117.596 7.81907 117.904 7.658 118.24 7.50613C118.576 7.35426 118.935 7.2254 119.317 7.11955C119.699 7.01371 120.081 6.96309 120.467 6.96309C121.636 6.96309 122.442 7.28523 122.883 7.92491C123.325 8.56919 123.546 9.46199 123.546 10.6125V19.1815H125.787V10.9024C125.787 9.98201 125.709 9.16286 125.557 8.44494C125.405 7.71782 125.143 7.11495 124.766 6.62714Z" fill="#97D700"/>
<path d="M142.23 9.32832C141.982 8.45854 141.609 7.70841 141.107 7.08714C140.61 6.46586 139.98 5.97805 139.225 5.6375C138.466 5.29234 137.582 5.12207 136.565 5.12207C135.645 5.12207 134.807 5.29234 134.048 5.62369C133.289 5.95964 132.649 6.43825 132.124 7.05953C131.595 7.6808 131.185 8.43093 130.886 9.30071C130.587 10.1751 130.44 11.1553 130.44 12.246C130.44 13.4333 130.596 14.478 130.914 15.38C131.231 16.282 131.678 17.0321 132.267 17.635C132.851 18.2378 133.556 18.6981 134.379 19.0156C135.203 19.3331 136.133 19.4896 137.168 19.4896C138.512 19.4896 139.58 19.2089 140.376 18.6428C141.172 18.0768 141.816 17.3635 142.318 16.5029L140.85 15.5273C140.486 16.1393 140.008 16.6594 139.414 17.0781C138.82 17.5015 138.093 17.7086 137.228 17.7086C135.732 17.7086 134.591 17.2208 133.809 16.2406C133.022 15.2649 132.631 13.9119 132.631 12.1862H142.608C142.603 11.1553 142.479 10.2027 142.23 9.32832ZM132.828 10.4374C133.077 9.15345 133.533 8.23764 134.195 7.69C134.858 7.14236 135.645 6.87084 136.565 6.87084C136.989 6.87084 137.407 6.94447 137.831 7.08714C138.254 7.2298 138.627 7.4507 138.954 7.74983C139.28 8.04896 139.547 8.42173 139.759 8.87273C139.971 9.32372 140.086 9.84375 140.104 10.4374H132.828Z" fill="#97D700"/>
<path d="M149.359 0H147.145V19.1767H149.359V0Z" fill="#97D700"/>
<path d="M155.885 0C155.48 0 155.139 0.161077 154.849 0.487821C154.564 0.814565 154.417 1.19653 154.417 1.63833C154.417 2.09853 154.559 2.4851 154.849 2.80264C155.134 3.12018 155.48 3.27665 155.885 3.27665C156.285 3.27665 156.63 3.12018 156.92 2.80264C157.205 2.4851 157.353 2.09853 157.353 1.63833C157.353 1.19653 157.21 0.814565 156.92 0.487821C156.635 0.161077 156.29 0 155.885 0Z" fill="#97D700"/>
<path d="M157.007 5.46289H154.766V19.1769H157.007V5.46289Z" fill="#97D700"/>
<path d="M173.193 17.2486C172.581 16.9402 171.831 16.7239 170.952 16.5859C170.068 16.4524 169.056 16.3742 167.905 16.3558C166.718 16.3374 165.899 16.2545 165.448 16.1119C164.997 15.9692 164.771 15.7437 164.771 15.4354C164.771 15.1685 164.905 14.9522 165.171 14.7865C165.438 14.6254 165.728 14.5242 166.032 14.4828C166.244 14.5196 166.534 14.561 166.911 14.5978C167.284 14.6346 167.597 14.653 167.845 14.653C168.614 14.653 169.359 14.5564 170.086 14.3677C170.814 14.1744 171.458 13.8799 172.015 13.4749C172.572 13.0745 173.018 12.5683 173.349 11.9654C173.685 11.3626 173.851 10.6585 173.851 9.85312C173.851 9.24105 173.745 8.68881 173.533 8.20099C173.322 7.71318 173.046 7.27599 172.7 6.89402L174.569 5.0256L173.161 3.73242L171.122 5.77572C170.625 5.54562 170.1 5.37995 169.557 5.2741C169.01 5.16826 168.448 5.11764 167.877 5.11764C167.15 5.11764 166.437 5.21427 165.737 5.40756C165.038 5.60084 164.412 5.89077 163.855 6.28655C163.298 6.67772 162.852 7.17474 162.521 7.7684C162.185 8.36206 162.019 9.06157 162.019 9.86692C162.019 10.4422 162.106 10.9438 162.277 11.3764C162.452 11.809 162.663 12.1863 162.926 12.5131C163.183 12.8398 163.464 13.1068 163.759 13.3184C164.053 13.5301 164.32 13.6912 164.55 13.8063C163.938 13.9581 163.423 14.2066 163.013 14.5518C162.599 14.8969 162.396 15.3387 162.396 15.8726C162.396 16.296 162.511 16.6411 162.742 16.908C162.972 17.175 163.262 17.3866 163.602 17.5385C162.258 18.2472 161.591 19.3379 161.591 20.8151C161.591 22.251 162.199 23.3048 163.418 23.9767C164.638 24.6486 166.345 24.9846 168.549 24.9846C169.433 24.9846 170.27 24.8879 171.067 24.6993C171.863 24.506 172.558 24.2253 173.151 23.8525C173.745 23.4797 174.214 23.0149 174.56 22.4581C174.905 21.9012 175.075 21.2523 175.075 20.5022C175.075 19.6969 174.919 19.0296 174.601 18.5049C174.27 17.9711 173.805 17.5569 173.193 17.2486ZM164.426 11.0128C164.274 10.6493 164.196 10.2673 164.196 9.86232C164.196 9.36531 164.302 8.92811 164.513 8.55535C164.725 8.18259 165.001 7.87425 165.346 7.63495C165.691 7.39564 166.087 7.21156 166.538 7.0873C166.989 6.96305 167.445 6.89862 167.905 6.89862C168.384 6.89862 168.848 6.96305 169.299 7.0873C169.75 7.21156 170.146 7.39564 170.491 7.63495C170.837 7.87425 171.113 8.18259 171.324 8.55535C171.536 8.92811 171.642 9.3561 171.642 9.83471C171.642 10.41 171.527 10.8978 171.297 11.3028C171.067 11.7031 170.763 12.0253 170.39 12.2646C170.017 12.5039 169.603 12.6788 169.152 12.78C168.701 12.8859 168.246 12.9365 167.785 12.9365C167.229 12.9365 166.732 12.849 166.29 12.6788C165.848 12.5085 165.471 12.2784 165.153 11.9885C164.84 11.7031 164.596 11.3764 164.426 11.0128ZM171.771 22.5409C170.938 23.0195 169.861 23.2588 168.536 23.2588C167.808 23.2588 167.141 23.199 166.538 23.0839C165.935 22.9689 165.411 22.8032 164.969 22.5823C164.527 22.3614 164.182 22.0899 163.934 21.7632C163.685 21.4364 163.561 21.0545 163.561 20.6127C163.561 19.9822 163.713 19.4622 164.021 19.0618C164.329 18.6614 164.73 18.3347 165.227 18.0862C165.705 18.1644 166.589 18.2196 167.873 18.2564C168.89 18.2748 169.727 18.3347 170.39 18.4267C171.053 18.5233 171.577 18.666 171.973 18.8593C172.364 19.0526 172.641 19.2919 172.792 19.5772C172.944 19.8625 173.023 20.2077 173.023 20.6127C173.023 21.418 172.604 22.0577 171.771 22.5409Z" fill="#97D700"/>
<path d="M185.296 5.11725C184.412 5.11725 183.621 5.25531 182.908 5.53603C182.199 5.81215 181.564 6.1527 181.012 6.55768V0.00439453H178.798V19.181H181.012V8.45831C181.509 8.09476 182.098 7.745 182.779 7.40905C183.46 7.07311 184.164 6.90743 184.891 6.90743C186.042 6.90743 186.875 7.21117 187.395 7.81403C187.91 8.4169 188.172 9.35111 188.172 10.6167V19.1856H190.413V10.6489C190.413 8.84949 190.027 7.47808 189.249 6.53927C188.471 5.58665 187.155 5.11725 185.296 5.11725Z" fill="#97D700"/>
<path d="M202.144 16.9356C201.877 17.1473 201.578 17.3267 201.251 17.4832C200.924 17.6351 200.579 17.7133 200.216 17.7133C199.815 17.7133 199.484 17.6029 199.222 17.382C198.964 17.1611 198.835 16.7147 198.835 16.0474V7.28051H202.457V5.46731H198.863V1.73047H196.649V5.46731H194.293V7.28051H196.649V16.2775C196.649 17.3681 196.925 18.1781 197.482 18.7073C198.039 19.232 198.835 19.4989 199.866 19.4989C200.653 19.4989 201.26 19.4022 201.693 19.2136C202.126 19.0203 202.558 18.7626 203 18.4358L202.144 16.9356Z" fill="#97D700"/>
<path d="M34.7775 0C15.6009 0 0 15.6009 0 34.7775C0 53.9542 15.6009 69.555 34.7775 69.555C53.9542 69.555 69.555 53.9542 69.555 34.7775C69.555 15.6009 53.9542 0 34.7775 0ZM34.7775 65.9977C17.5613 65.9977 3.55737 51.9937 3.55737 34.7775C3.55737 17.5613 17.5613 3.55737 34.7775 3.55737C51.9937 3.55737 65.9977 17.5613 65.9977 34.7775C65.9977 51.9937 51.9937 65.9977 34.7775 65.9977Z" fill="#898D8D"/>
<path d="M85.34 26.2593H83.0389V45.4359H85.34V26.2593Z" fill="#898D8D"/>
<path d="M97.6136 31.3765C96.7898 31.3765 95.9983 31.5099 95.2435 31.7814C94.4842 32.0484 93.8307 32.3935 93.2739 32.8169L93.1312 31.7262H91.0879V45.4403H93.3015V34.6899C93.7985 34.308 94.3968 33.9582 95.0963 33.6407C95.7958 33.3231 96.5091 33.1667 97.2362 33.1667C98.4051 33.1667 99.2473 33.4934 99.7673 34.1423C100.283 34.7958 100.545 35.6932 100.545 36.8437V45.4403H102.759V36.9035C102.759 35.0811 102.372 33.7097 101.594 32.7801C100.821 31.8413 99.4912 31.3765 97.6136 31.3765Z" fill="#898D8D"/>
<path d="M113.168 37.3269C112.497 37.0968 111.944 36.8897 111.516 36.7102C111.084 36.5261 110.734 36.3467 110.467 36.1626C110.2 35.9785 110.012 35.7806 109.906 35.5597C109.8 35.3388 109.749 35.0857 109.749 34.8004C109.749 34.3402 109.947 33.9536 110.338 33.6361C110.729 33.3185 111.332 33.1621 112.138 33.1621C112.791 33.1621 113.376 33.3139 113.891 33.6223C114.406 33.9306 114.857 34.3126 115.244 34.7728L116.795 33.5348C116.279 32.8445 115.644 32.3153 114.899 31.9379C114.153 31.5651 113.219 31.3765 112.11 31.3765C110.766 31.3765 109.689 31.694 108.875 32.3245C108.06 32.955 107.651 33.8294 107.651 34.9384C107.651 35.4539 107.724 35.9049 107.867 36.2914C108.01 36.6734 108.235 37.0186 108.543 37.3269C108.852 37.6352 109.243 37.916 109.722 38.1737C110.2 38.4314 110.785 38.6753 111.475 38.9054C112.105 39.1355 112.644 39.3518 113.086 39.5543C113.527 39.7568 113.886 39.9685 114.163 40.1848C114.439 40.4056 114.641 40.6542 114.765 40.9303C114.89 41.2064 114.954 41.5469 114.954 41.9519C114.954 43.2957 114.015 43.963 112.138 43.963C111.277 43.963 110.591 43.7973 110.081 43.4614C109.574 43.1254 109.156 42.6514 108.829 42.0394L107.103 43.1024C107.563 43.871 108.175 44.5014 108.944 44.9985C109.712 45.4955 110.775 45.744 112.133 45.744C112.842 45.744 113.495 45.652 114.089 45.4725C114.683 45.2884 115.198 45.0261 115.626 44.6809C116.059 44.3358 116.399 43.9078 116.648 43.4016C116.896 42.8953 117.02 42.3155 117.02 41.662C117.02 40.5529 116.694 39.6601 116.045 38.9882C115.391 38.3209 114.429 37.7687 113.168 37.3269Z" fill="#898D8D"/>
<path d="M123.601 31.7173H121.36V45.4313H123.601V31.7173Z" fill="#898D8D"/>
<path d="M122.483 26.2593C122.083 26.2593 121.737 26.4203 121.447 26.7471C121.162 27.0738 121.015 27.4558 121.015 27.8976C121.015 28.3578 121.158 28.7444 121.447 29.0619C121.733 29.3794 122.078 29.5359 122.483 29.5359C122.888 29.5359 123.228 29.3794 123.518 29.0619C123.804 28.7444 123.951 28.3578 123.951 27.8976C123.951 27.4558 123.808 27.0738 123.518 26.7471C123.228 26.4203 122.883 26.2593 122.483 26.2593Z" fill="#898D8D"/>
<path d="M139.787 43.5077C139.175 43.1993 138.424 42.9784 137.545 42.845C136.662 42.7115 135.649 42.6333 134.499 42.6149C133.312 42.5964 132.492 42.5136 132.041 42.371C131.59 42.2283 131.365 42.0028 131.365 41.6945C131.365 41.4275 131.498 41.2112 131.77 41.0502C132.037 40.8891 132.327 40.7879 132.63 40.7464C132.842 40.7833 133.132 40.8247 133.509 40.8615C133.882 40.8983 134.195 40.9167 134.444 40.9167C135.208 40.9167 135.958 40.8201 136.685 40.6314C137.412 40.4427 138.056 40.1436 138.608 39.7386C139.165 39.3336 139.612 38.832 139.943 38.2291C140.279 37.6263 140.445 36.9222 140.445 36.1168C140.445 35.5047 140.339 34.9525 140.127 34.4647C139.915 33.9769 139.639 33.5397 139.294 33.1577L141.163 31.2893L139.754 29.9961L137.716 32.0394C137.219 31.8093 136.694 31.6436 136.146 31.5378C135.599 31.4319 135.037 31.3813 134.467 31.3813C133.74 31.3813 133.026 31.478 132.327 31.6712C131.627 31.8645 131.001 32.1545 130.445 32.5502C129.888 32.9414 129.441 33.4384 129.11 34.0321C128.774 34.6257 128.608 35.3252 128.608 36.1306C128.608 36.7059 128.696 37.2075 128.866 37.6401C129.041 38.0727 129.253 38.45 129.515 38.7768C129.773 39.1035 130.053 39.3704 130.348 39.5821C130.647 39.7938 130.909 39.9549 131.139 40.0699C130.527 40.2218 130.012 40.4749 129.602 40.8155C129.188 41.1606 128.986 41.6024 128.986 42.1362C128.986 42.5596 129.101 42.9048 129.331 43.1717C129.561 43.4386 129.846 43.6503 130.191 43.8022C128.848 44.5109 128.18 45.6016 128.18 47.0788C128.18 48.5147 128.788 49.5685 130.007 50.2404C131.227 50.9123 132.934 51.2483 135.139 51.2483C136.022 51.2483 136.86 51.1516 137.656 50.9629C138.452 50.7697 139.147 50.4889 139.741 50.1162C140.334 49.7434 140.804 49.2786 141.149 48.7217C141.494 48.1649 141.664 47.516 141.664 46.7659C141.664 45.9605 141.508 45.2932 141.19 44.7686C140.863 44.2302 140.399 43.8114 139.787 43.5077ZM131.02 37.2673C130.868 36.9037 130.79 36.5218 130.79 36.1168C130.79 35.6198 130.896 35.1826 131.107 34.8098C131.319 34.4371 131.595 34.1287 131.94 33.8894C132.285 33.6501 132.681 33.466 133.132 33.3418C133.583 33.2175 134.039 33.1531 134.499 33.1531C134.977 33.1531 135.442 33.2175 135.893 33.3418C136.344 33.466 136.74 33.6501 137.085 33.8894C137.43 34.1287 137.706 34.4371 137.918 34.8098C138.13 35.1826 138.236 35.6106 138.236 36.0892C138.236 36.6644 138.121 37.1523 137.891 37.5572C137.66 37.9622 137.357 38.2798 136.984 38.5191C136.611 38.7584 136.197 38.9332 135.746 39.0345C135.295 39.1403 134.839 39.1909 134.379 39.1909C133.822 39.1909 133.325 39.1035 132.884 38.9332C132.442 38.763 132.064 38.5329 131.747 38.2429C131.434 37.9576 131.19 37.6309 131.02 37.2673ZM138.365 48.7954C137.532 49.274 136.455 49.5133 135.129 49.5133C134.402 49.5133 133.735 49.4535 133.132 49.3384C132.529 49.2234 132.005 49.0531 131.563 48.8368C131.121 48.6159 130.776 48.3444 130.527 48.0176C130.279 47.6909 130.155 47.3089 130.155 46.8671C130.155 46.2366 130.306 45.7166 130.615 45.3162C130.923 44.9159 131.323 44.5891 131.821 44.3406C132.299 44.4189 133.183 44.4741 134.467 44.5109C135.484 44.5293 136.321 44.5891 136.984 44.6812C137.647 44.7778 138.171 44.9205 138.567 45.1138C138.958 45.307 139.234 45.5463 139.386 45.8317C139.538 46.117 139.616 46.4621 139.616 46.8671C139.616 47.6771 139.198 48.3168 138.365 48.7954Z" fill="#898D8D"/>
<path d="M151.89 31.3765C151.006 31.3765 150.215 31.5146 149.501 31.7953C148.793 32.0714 148.158 32.412 147.605 32.817V26.2637H145.392V45.4403H147.605V34.7176C148.102 34.354 148.692 34.0043 149.373 33.6683C150.054 33.3324 150.758 33.1667 151.485 33.1667C152.635 33.1667 153.468 33.4704 153.984 34.0733C154.504 34.6762 154.762 35.6104 154.762 36.8759V45.4449H157.003V36.9082C157.003 35.1088 156.616 33.7374 155.838 32.7986C155.065 31.8459 153.749 31.3765 151.89 31.3765Z" fill="#898D8D"/>
<path d="M167.845 43.7376C167.518 43.8895 167.173 43.9677 166.81 43.9677C166.409 43.9677 166.078 43.8573 165.816 43.6364C165.558 43.4155 165.429 42.9691 165.429 42.3018V33.5349H169.051V31.7217H165.457V27.9849H163.243V31.7217H160.887V33.5349H163.243V42.5319C163.243 43.6226 163.519 44.4325 164.076 44.9617C164.633 45.491 165.429 45.7533 166.46 45.7533C167.247 45.7533 167.854 45.6567 168.287 45.468C168.719 45.2747 169.152 45.017 169.594 44.6902L168.733 43.1946C168.466 43.4017 168.172 43.5811 167.845 43.7376Z" fill="#898D8D"/>
<path d="M181.154 38.9928C180.501 38.3209 179.543 37.7687 178.278 37.3269C177.606 37.0968 177.058 36.8897 176.626 36.7102C176.193 36.5261 175.843 36.3467 175.577 36.1626C175.31 35.9785 175.121 35.7806 175.015 35.5597C174.909 35.3388 174.859 35.0857 174.859 34.8004C174.859 34.3402 175.056 33.9536 175.448 33.6361C175.839 33.3185 176.442 33.1621 177.247 33.1621C177.896 33.1621 178.485 33.3139 179 33.6223C179.52 33.9306 179.967 34.3126 180.353 34.7728L181.904 33.5348C181.389 32.8445 180.754 32.3153 180.008 31.9379C179.263 31.5651 178.333 31.3765 177.219 31.3765C175.876 31.3765 174.799 31.694 173.984 32.3245C173.17 32.955 172.765 33.8294 172.765 34.9384C172.765 35.4539 172.838 35.9049 172.981 36.2914C173.124 36.6734 173.349 37.0186 173.657 37.3269C173.966 37.6352 174.357 37.916 174.836 38.1737C175.314 38.4314 175.899 38.6753 176.589 38.9054C177.219 39.1355 177.758 39.3518 178.2 39.5543C178.641 39.7568 179 39.9685 179.277 40.1848C179.553 40.4056 179.755 40.6542 179.879 40.9303C180.004 41.2064 180.068 41.5469 180.068 41.9519C180.068 43.2957 179.129 43.963 177.252 43.963C176.391 43.963 175.705 43.7973 175.195 43.4614C174.688 43.1254 174.27 42.6514 173.943 42.0394L172.217 43.1024C172.677 43.871 173.289 44.5014 174.058 44.9985C174.822 45.4955 175.889 45.744 177.247 45.744C177.956 45.744 178.609 45.652 179.203 45.4725C179.797 45.2884 180.307 45.0261 180.74 44.6809C181.173 44.3358 181.513 43.9078 181.762 43.4016C182.01 42.8953 182.134 42.3155 182.134 41.662C182.134 40.5529 181.808 39.6647 181.154 38.9928Z" fill="#898D8D"/>
<path d="M35.8498 53.6552C24.7911 53.6552 15.8218 44.6904 15.8218 33.6271C15.8218 22.7894 24.4322 13.9627 35.1871 13.6129C34.957 13.6083 34.7315 13.5991 34.5014 13.5991C22.6926 13.5991 13.125 23.1713 13.125 34.9755C13.125 46.7797 22.6972 56.3519 34.5014 56.3519C46.3056 56.3519 55.8778 46.7797 55.8778 34.9755C55.8778 34.7454 55.8732 34.5153 55.864 34.2898C55.5143 45.0448 46.6876 53.6552 35.8498 53.6552Z" fill="#DAAA00"/>
<path d="M17.8282 33.6685C17.8282 43.5904 25.8726 51.6394 35.7992 51.6394C45.7211 51.6394 53.7701 43.5904 53.7701 33.6685C53.7701 33.4752 53.7655 33.2819 53.7609 33.0932C53.4663 42.1316 46.0479 49.3706 36.9359 49.3706C27.6398 49.3706 20.1016 41.8325 20.1016 32.5364C20.1016 23.4244 27.3406 16.0059 36.379 15.7114C36.1857 15.7068 35.9924 15.7022 35.8038 15.7022C25.8726 15.6975 17.8282 23.7419 17.8282 33.6685Z" fill="#DAAA00"/>
<path d="M22.7111 32.6189C22.7111 40.4239 29.0389 46.7517 36.8439 46.7517C44.6489 46.7517 50.9767 40.4239 50.9767 32.6189C50.9767 32.467 50.9721 32.3151 50.9675 32.1633C50.7374 39.2734 44.902 44.9661 37.7367 44.9661C30.4241 44.9661 24.4966 39.0387 24.4966 31.7261C24.4966 24.5607 30.1894 18.7253 37.2995 18.4906C37.1476 18.486 36.9958 18.4814 36.8439 18.4814C29.0389 18.486 22.7111 24.8138 22.7111 32.6189Z" fill="#DAAA00"/>
<path d="M27.2947 32.1129C27.2947 37.7458 31.8599 42.311 37.4928 42.311C43.1256 42.311 47.6909 37.7458 47.6909 32.1129C47.6909 32.0025 47.6909 31.892 47.6863 31.7862C47.5206 36.9174 43.3097 41.027 38.137 41.027C32.8585 41.027 28.5786 36.7472 28.5786 31.4732C28.5786 26.3006 32.6883 22.0897 37.8195 21.924C37.7091 21.9194 37.6032 21.9194 37.4928 21.9194C31.8599 21.9148 27.2947 26.48 27.2947 32.1129Z" fill="#DAAA00"/>
<path d="M31.6206 31.731C31.6206 35.3206 34.5291 38.229 38.1187 38.229C41.7083 38.229 44.6167 35.3206 44.6167 31.731C44.6167 31.6619 44.6167 31.5929 44.6121 31.5239C44.5063 34.7913 41.8233 37.4099 38.5282 37.4099C35.1642 37.4099 32.4398 34.6855 32.4398 31.3214C32.4398 28.0263 35.0583 25.3433 38.3258 25.2375C38.2567 25.2375 38.1877 25.2329 38.1187 25.2329C34.5291 25.2329 31.6206 28.1414 31.6206 31.731Z" fill="#DAAA00"/>
<path d="M88.428 58.3719C88.0736 57.9807 87.641 57.6724 87.1394 57.4699C86.3387 57.1385 85.409 57.0741 84.4702 57.272C84.1527 57.3364 83.8213 57.4469 83.4762 57.5941V53.8711H81.8977V65.8088L81.9483 65.8318C82.3073 65.9928 82.7583 66.1447 83.2921 66.2874C83.8306 66.43 84.4472 66.5037 85.1237 66.5037C85.7542 66.5037 86.3525 66.3932 86.8909 66.1769C87.4293 65.9606 87.9079 65.6431 88.3083 65.2381C88.7087 64.8331 89.0216 64.3407 89.2471 63.7701C89.468 63.1994 89.5831 62.5505 89.5831 61.8464C89.5831 61.0917 89.4772 60.4198 89.2748 59.8445C89.0631 59.2555 88.7823 58.763 88.428 58.3719ZM88.0368 61.8004C88.0368 62.3158 87.9632 62.7898 87.8205 63.2086C87.6778 63.6228 87.4708 63.9863 87.2038 64.2809C86.9369 64.5754 86.6056 64.8055 86.2236 64.9666C85.837 65.1277 85.3998 65.2105 84.9212 65.2105C84.6819 65.2105 84.4288 65.1783 84.1665 65.1184C83.9226 65.0632 83.6879 64.9896 83.4762 64.9068V58.9978C83.7707 58.8091 84.0745 58.6756 84.369 58.602C85.1099 58.4179 85.7818 58.4501 86.3571 58.7078C86.6884 58.8551 86.9829 59.076 87.2315 59.3567C87.48 59.642 87.6778 59.9964 87.8205 60.406C87.9632 60.8156 88.0368 61.285 88.0368 61.8004Z" fill="#DAAA00"/>
<path d="M95.4691 63.9589L92.9333 57.3596H91.1385L94.6269 65.9884L93.9228 67.7003C93.7571 68.0777 93.596 68.3354 93.4488 68.4597C93.3061 68.5793 93.099 68.6438 92.8413 68.6438C92.6434 68.6438 92.4409 68.6207 92.243 68.5793C92.0451 68.5379 91.8795 68.4919 91.7506 68.4459L91.677 68.4183L91.2168 69.6148L91.2904 69.647C91.4653 69.7206 91.7138 69.7989 92.0267 69.8817C92.3443 69.9645 92.6526 70.0014 92.9379 70.0014C93.3751 70.0014 93.8077 69.9001 94.2127 69.6976C94.6269 69.4905 94.9536 69.1086 95.1791 68.5517L99.6615 57.47L99.7075 57.355H98.0048L95.4691 63.9589Z" fill="#DAAA00"/>
<path d="M112.892 60.4707C112.57 60.1854 112.197 59.9323 111.792 59.7252C111.387 59.5181 110.973 59.3202 110.554 59.1361C110.113 58.9382 109.717 58.7634 109.358 58.6023C109.008 58.4458 108.704 58.2756 108.461 58.1053C108.221 57.935 108.028 57.7463 107.894 57.5392C107.766 57.3413 107.697 57.0928 107.697 56.8029C107.697 56.2829 107.881 55.8825 108.263 55.5696C108.645 55.2612 109.192 55.1002 109.892 55.1002C110.462 55.1002 110.996 55.2336 111.479 55.5051C111.963 55.7721 112.363 56.1264 112.676 56.559L112.727 56.628L113.974 55.6478L113.932 55.5834C113.486 54.9115 112.892 54.4145 112.17 54.1015C111.452 53.7932 110.693 53.6367 109.915 53.6367C109.404 53.6367 108.912 53.7011 108.451 53.8346C107.987 53.9635 107.563 54.1659 107.195 54.4375C106.827 54.709 106.528 55.0495 106.307 55.4591C106.086 55.8687 105.975 56.3473 105.975 56.8857C105.975 57.415 106.081 57.866 106.288 58.2295C106.495 58.5931 106.767 58.9152 107.098 59.1914C107.425 59.4629 107.798 59.6976 108.207 59.8909C108.617 60.0842 109.031 60.2728 109.441 60.4523C109.809 60.6134 110.163 60.7745 110.504 60.9355C110.84 61.0966 111.144 61.2853 111.41 61.4878C111.673 61.6903 111.88 61.9204 112.036 62.1735C112.188 62.422 112.262 62.7165 112.262 63.0433C112.262 63.3976 112.202 63.706 112.078 63.9637C111.953 64.2214 111.788 64.4285 111.585 64.5849C111.378 64.746 111.134 64.8611 110.858 64.9393C110.582 65.0175 110.283 65.0543 109.97 65.0543C109.386 65.0543 108.801 64.9255 108.24 64.677C107.678 64.4285 107.223 64.0465 106.877 63.5495L106.831 63.4804L105.543 64.4423L105.584 64.5067C105.796 64.8334 106.063 65.128 106.385 65.3811C106.703 65.6342 107.052 65.8505 107.43 66.0254C107.807 66.2002 108.207 66.3337 108.622 66.4257C109.036 66.5178 109.459 66.5638 109.883 66.5638C110.439 66.5638 110.969 66.4948 111.456 66.3567C111.949 66.2187 112.391 65.9978 112.763 65.6986C113.141 65.3995 113.44 65.0129 113.661 64.5481C113.882 64.0833 113.992 63.5311 113.992 62.896C113.992 62.3576 113.891 61.8881 113.688 61.497C113.481 61.0966 113.214 60.756 112.892 60.4707Z" fill="#DAAA00"/>
<path d="M120.923 57.1387C120.352 57.1387 119.828 57.2308 119.367 57.4103C118.962 57.5667 118.594 57.76 118.267 57.9809V53.8667H116.689V66.2922H118.267V59.3983C118.576 59.1774 118.939 58.9611 119.354 58.7586C119.777 58.5516 120.219 58.4457 120.67 58.4457C121.374 58.4457 121.894 58.6298 122.207 58.998C122.524 59.3661 122.685 59.9506 122.685 60.7375V66.2968H124.282V60.7559C124.282 59.5916 124.025 58.685 123.518 58.0729C123.003 57.4517 122.133 57.1387 120.923 57.1387Z" fill="#DAAA00"/>
<path d="M133.431 64.2624C133.16 64.5155 132.81 64.7318 132.387 64.9112C131.949 65.0953 131.508 65.1873 131.066 65.1873C130.394 65.1873 129.878 65.0171 129.542 64.6857C129.207 64.3544 129.036 63.8067 129.036 63.0612V57.3547H127.458V62.9876C127.458 64.1565 127.729 65.0401 128.259 65.6153C128.792 66.1952 129.658 66.4851 130.826 66.4851C131.457 66.4851 131.995 66.4023 132.419 66.2412C132.796 66.0986 133.155 65.9053 133.486 65.6706L133.569 66.2826H135.028V57.3501H133.431V64.2624Z" fill="#DAAA00"/>
<path d="M145.332 64.9072C144.932 64.7093 144.444 64.562 143.873 64.4792C143.307 64.3917 142.649 64.3411 141.913 64.3319C141.163 64.3181 140.643 64.2675 140.366 64.1801C139.994 64.0604 139.994 63.8855 139.994 63.8257C139.994 63.683 140.063 63.5726 140.21 63.4805C140.366 63.3839 140.537 63.3241 140.716 63.3011C140.85 63.3241 141.038 63.3471 141.268 63.3747C141.503 63.3977 141.71 63.4115 141.876 63.4115C142.373 63.4115 142.861 63.3471 143.33 63.2228C143.804 63.0986 144.228 62.9007 144.591 62.6384C144.955 62.3761 145.249 62.0401 145.47 61.6443C145.691 61.2486 145.801 60.7791 145.801 60.2545C145.801 59.8541 145.732 59.486 145.594 59.1638C145.465 58.8693 145.3 58.6024 145.097 58.3631L146.298 57.162L145.277 56.2231L143.956 57.5439C143.648 57.4059 143.321 57.3046 142.99 57.2402C142.189 57.0883 141.324 57.1021 140.509 57.323C140.054 57.4473 139.639 57.6406 139.28 57.8937C138.917 58.1514 138.622 58.4781 138.401 58.8647C138.18 59.2559 138.07 59.7207 138.07 60.2453C138.07 60.6227 138.13 60.9586 138.24 61.2394C138.351 61.5201 138.498 61.7732 138.664 61.9849C138.834 62.1966 139.018 62.376 139.211 62.5141C139.331 62.5969 139.446 62.6752 139.547 62.735C139.23 62.8363 138.954 62.9835 138.728 63.1722C138.447 63.4069 138.305 63.7152 138.305 64.0788C138.305 64.3687 138.388 64.608 138.544 64.7921C138.664 64.9348 138.811 65.0544 138.981 65.1465C138.19 65.6159 137.789 66.3154 137.789 67.2358C137.789 68.1838 138.199 68.8879 139 69.3297C139.787 69.7623 140.905 69.9832 142.318 69.9832C142.884 69.9832 143.431 69.9188 143.947 69.7991C144.462 69.6749 144.918 69.4908 145.304 69.2469C145.691 69.003 146.004 68.6946 146.229 68.3311C146.46 67.9629 146.575 67.5303 146.575 67.0379C146.575 66.5087 146.469 66.0669 146.257 65.7171C146.05 65.3858 145.737 65.1097 145.332 64.9072ZM145.102 67.1299C145.102 67.6178 144.853 67.9951 144.343 68.2897C143.823 68.5888 143.141 68.7361 142.313 68.7361C141.853 68.7361 141.43 68.6992 141.052 68.6256C140.675 68.552 140.348 68.4461 140.072 68.3127C139.805 68.1792 139.589 68.0089 139.437 67.811C139.29 67.6178 139.216 67.3923 139.216 67.1253C139.216 66.7434 139.308 66.4258 139.492 66.1819C139.676 65.9426 139.915 65.7447 140.215 65.5929C140.532 65.6389 141.08 65.6757 141.89 65.6987C142.529 65.7125 143.068 65.7493 143.487 65.8092C143.896 65.869 144.232 65.961 144.471 66.0761C144.706 66.1911 144.867 66.3338 144.959 66.4995C145.056 66.6789 145.102 66.886 145.102 67.1299ZM139.626 60.2545C139.626 59.9508 139.69 59.6839 139.819 59.4584C139.948 59.2329 140.118 59.0442 140.325 58.8969C140.537 58.7497 140.785 58.6346 141.061 58.561C141.632 58.3999 142.23 58.4091 142.783 58.561C143.059 58.6392 143.307 58.7497 143.519 58.8969C143.726 59.0442 143.901 59.2329 144.025 59.4584C144.154 59.6839 144.218 59.9462 144.218 60.2361C144.218 60.5859 144.149 60.8896 144.007 61.1335C143.869 61.3774 143.68 61.5753 143.454 61.7226C143.224 61.8698 142.967 61.9803 142.69 62.0447C142.41 62.1091 142.124 62.1413 141.834 62.1413C141.494 62.1413 141.181 62.0861 140.909 61.9803C140.638 61.8744 140.403 61.7318 140.21 61.5523C140.017 61.3774 139.865 61.1749 139.759 60.954C139.672 60.7377 139.626 60.4984 139.626 60.2545Z" fill="#DAAA00"/>
<path d="M155.664 58.6067C155.323 58.1695 154.881 57.8152 154.361 57.5437C153.837 57.2767 153.224 57.1387 152.539 57.1387C151.844 57.1387 151.227 57.2721 150.712 57.5345C150.196 57.7968 149.755 58.1511 149.409 58.5883C149.064 59.0209 148.802 59.5225 148.632 60.0748C148.466 60.627 148.379 61.2023 148.379 61.7821C148.379 62.3666 148.466 62.9464 148.641 63.5079C148.816 64.0739 149.078 64.5848 149.428 65.0219C149.778 65.4637 150.21 65.8273 150.721 66.0988C151.246 66.3611 151.858 66.4946 152.539 66.4946C153.224 66.4946 153.837 66.3565 154.361 66.0896C154.886 65.8227 155.323 65.4637 155.664 65.0266C156.004 64.594 156.266 64.0877 156.441 63.5309C156.616 62.974 156.704 62.3942 156.704 61.8143C156.704 61.2345 156.616 60.6592 156.441 60.0978C156.266 59.5455 156.004 59.0393 155.664 58.6067ZM153.68 64.8977C153.358 65.091 152.971 65.1876 152.534 65.1876C152.111 65.1876 151.733 65.091 151.407 64.8977C151.08 64.7044 150.804 64.4467 150.578 64.1384C150.367 63.8162 150.201 63.4481 150.095 63.0431C149.985 62.6335 149.934 62.2101 149.934 61.7775C149.934 61.3587 149.989 60.9446 150.095 60.5396C150.206 60.1392 150.367 59.7756 150.578 59.4627C150.79 59.1498 151.062 58.8966 151.388 58.708C151.71 58.5193 152.097 58.4226 152.534 58.4226C152.971 58.4226 153.353 58.5193 153.68 58.708C154.007 58.8966 154.283 59.1544 154.499 59.4627C154.72 59.7756 154.886 60.1438 154.992 60.5488C155.097 60.9584 155.153 61.3771 155.153 61.7959C155.153 62.2147 155.097 62.6335 154.992 63.0431C154.886 63.4481 154.72 63.8162 154.499 64.1292C154.283 64.4467 154.007 64.7044 153.68 64.8977Z" fill="#DAAA00"/>
<path d="M161.145 53.8667H159.566V66.2922H161.145V53.8667Z" fill="#DAAA00"/>
<path d="M166.018 53.8667H164.44V66.2922H166.018V53.8667Z" fill="#DAAA00"/>
</svg>
